<svg width="22" height="23" viewBox="0 0 22 23" fill="none" xmlns="http://www.w3.org/2000/svg">
<path d="M21 7.77V3.73C21 2.14 20.36 1.5 18.77 1.5H14.73C13.14 1.5 12.5 2.14 12.5 3.73V7.77C12.5 9.36 13.14 10 14.73 10H18.77C20.36 10 21 9.36 21 7.77ZM9.5 8.02V3.48C9.5 2.07 8.86 1.5 7.27 1.5H3.23C1.64 1.5 1 2.07 1 3.48V8.01C1 9.43 1.64 9.99 3.23 9.99H7.27C8.86 10 9.5 9.43 9.5 8.02ZM9.5 19.27V15.23C9.5 13.64 8.86 13 7.27 13H3.23C1.64 13 1 13.64 1 15.23V19.27C1 20.86 1.64 21.5 3.23 21.5H7.27C8.86 21.5 9.5 20.86 9.5 19.27Z" stroke="white" stroke-width="1.5" stroke-linecap="round" stroke-linejoin="round"/>
</svg>
